<mxfile host="65bd71144e">
    <diagram id="-d7fOsQ9WpsmbMdKVP7J" name="Page-1">
        <mxGraphModel dx="1189" dy="807" grid="1" gridSize="10" guides="1" tooltips="1" connect="1" arrows="1" fold="1" page="1" pageScale="1" pageWidth="827" pageHeight="1169" math="0" shadow="0">
            <root>
                <mxCell id="0"/>
                <mxCell id="1" parent="0"/>
                <mxCell id="2" value="App user wants to find a recipe" style="rounded=0;whiteSpace=wrap;html=1;" parent="1" vertex="1">
                    <mxGeometry x="80" y="50" width="120" height="60" as="geometry"/>
                </mxCell>
                <mxCell id="3" value="Open app" style="rounded=0;whiteSpace=wrap;html=1;" parent="1" vertex="1">
                    <mxGeometry x="310" y="50" width="120" height="60" as="geometry"/>
                </mxCell>
                <mxCell id="4" value="" style="endArrow=classic;html=1;" parent="1" edge="1">
                    <mxGeometry width="50" height="50" relative="1" as="geometry">
                        <mxPoint x="203" y="80" as="sourcePoint"/>
                        <mxPoint x="303" y="80" as="targetPoint"/>
                    </mxGeometry>
                </mxCell>
                <mxCell id="5" value="" style="endArrow=classic;html=1;" parent="1" edge="1">
                    <mxGeometry width="50" height="50" relative="1" as="geometry">
                        <mxPoint x="440" y="79.5" as="sourcePoint"/>
                        <mxPoint x="540" y="79.5" as="targetPoint"/>
                    </mxGeometry>
                </mxCell>
                <mxCell id="6" value="Homepage displays various different cuisines and recipes colour coded based on time to make. Each recipe has a picture, title, time to make and number of servings." style="rounded=0;whiteSpace=wrap;html=1;" parent="1" vertex="1">
                    <mxGeometry x="560" y="25" width="210" height="110" as="geometry"/>
                </mxCell>
                <mxCell id="7" value="" style="endArrow=classic;html=1;" edge="1" parent="1">
                    <mxGeometry width="50" height="50" relative="1" as="geometry">
                        <mxPoint x="679.5" y="140" as="sourcePoint"/>
                        <mxPoint x="679.5" y="220" as="targetPoint"/>
                    </mxGeometry>
                </mxCell>
                <mxCell id="8" value="Recipes can be scrolled horizontally and clicking a recipe takes you to the external recipe page." style="rounded=0;whiteSpace=wrap;html=1;" vertex="1" parent="1">
                    <mxGeometry x="600" y="230" width="160" height="80" as="geometry"/>
                </mxCell>
                <mxCell id="9" value="" style="endArrow=classic;html=1;" edge="1" parent="1">
                    <mxGeometry width="50" height="50" relative="1" as="geometry">
                        <mxPoint x="590" y="269.5" as="sourcePoint"/>
                        <mxPoint x="490" y="269.5" as="targetPoint"/>
                    </mxGeometry>
                </mxCell>
                <mxCell id="10" value="If wanting to search for a recipe the user can use the navbar to open the search page." style="rounded=0;whiteSpace=wrap;html=1;" vertex="1" parent="1">
                    <mxGeometry x="330" y="240" width="150" height="70" as="geometry"/>
                </mxCell>
                <mxCell id="11" value="" style="endArrow=classic;html=1;" edge="1" parent="1">
                    <mxGeometry width="50" height="50" relative="1" as="geometry">
                        <mxPoint x="320" y="274.5" as="sourcePoint"/>
                        <mxPoint x="220" y="274.5" as="targetPoint"/>
                    </mxGeometry>
                </mxCell>
                <mxCell id="12" value="The search page contains a simple input box and search button. API gets recipes based on keyword and displays recipe cards vertically in the same style as the homepage." style="rounded=0;whiteSpace=wrap;html=1;" vertex="1" parent="1">
                    <mxGeometry x="20" y="207.5" width="190" height="135" as="geometry"/>
                </mxCell>
                <mxCell id="13" value="Actor" style="shape=umlActor;verticalLabelPosition=bottom;verticalAlign=top;html=1;outlineConnect=0;" vertex="1" parent="1">
                    <mxGeometry x="60" y="440" width="55" height="110" as="geometry"/>
                </mxCell>
                <mxCell id="14" value="User must not be indecisive as they will reach the maximum API request limit." style="shape=callout;whiteSpace=wrap;html=1;perimeter=calloutPerimeter;" vertex="1" parent="1">
                    <mxGeometry x="100" y="360" width="150" height="100" as="geometry"/>
                </mxCell>
            </root>
        </mxGraphModel>
    </diagram>
</mxfile>